# xmcd
#
# Track frame offsets: 
#        150
#        12730
#        28835
#        42265
#        57797
#        69382
#        84215
#        98037
#        114962
#        129862
#        145372
#        159080
#        176047
#        193895
#        209190
#
# Disc length: 3026 seconds
#
# Revision: 2
# Processed by: cddbd v1.5.2PL0 Copyright (c) Steve Scherf et al.
# Submitted via: ExactAudioCopy v0.95a4
#
DISCID=ce0bd00f
DTITLE=Dolly Parton - 24 Karat Gold [CD2]
DYEAR=1996
DGENRE=Country
TTITLE0=9 To 5
TTITLE1=Heartbreaker
TTITLE2=Here You Come Again
TTITLE3=Applejack
TTITLE4=Baby I'm Burning
TTITLE5=It's All Wrong,But It's All Right
TTITLE6=Send Me The Pillow You Dream On
TTITLE7=My Girl
TTITLE8=But You Know I Love You
TTITLE9=Old Flames Can't Hold
TTITLE10=Two Doors Down
TTITLE11=We Had It All
TTITLE12=One Of Those Days
TTITLE13=You're The Only One
TTITLE14=Starting Over Again
EXTD=
EXTT0=
EXTT1=
EXTT2=
EXTT3=
EXTT4=
EXTT5=
EXTT6=
EXTT7=
EXTT8=
EXTT9=
EXTT10=
EXTT11=
EXTT12=
EXTT13=
EXTT14=
PLAYORDER=
